<svg width="42" height="42" viewBox="0 0 42 42" fill="none" xmlns="http://www.w3.org/2000/svg">
<path d="M10.6836 11.3422L7.0449 11.6233C6.0324 11.7016 5.13063 12.2322 4.57069 13.0792L0.374245 19.4261C-0.0504284 20.0684 -0.11794 20.8722 0.193531 21.5763C0.505084 22.2805 1.14533 22.7712 1.90617 22.8891L5.23785 23.4051C6.01722 19.2691 7.88293 15.1432 10.6836 11.3422ZM18.5949 36.7621L19.111 40.0938C19.2289 40.8546 19.7196 41.4949 20.4236 41.8064C20.7106 41.9338 21.0211 41.9997 21.3352 41.9999C21.7759 41.9996 22.2068 41.8694 22.574 41.6256L28.921 37.4293C29.768 36.8693 30.2987 35.9674 30.3767 34.9551L30.6579 31.3163C26.8567 34.1171 22.731 35.9828 18.5949 36.7621ZM17.3419 34.4529C17.4576 34.4529 17.5739 34.4434 17.69 34.424C19.4228 34.1343 21.0929 33.6462 22.6861 33.0073L8.99272 19.3139C8.35387 20.907 7.86579 22.5772 7.57605 24.3101C7.46187 24.9932 7.69098 25.689 8.18062 26.1788L15.8213 33.8194C16.2278 34.2259 16.7765 34.4529 17.3419 34.4529ZM38.6511 18.6212C42.002 12.1429 42.1261 5.29692 41.951 2.08624C41.891 0.986125 41.0139 0.109052 39.9137 0.0490874C39.3007 0.0160225 38.6869 -0.000362321 38.073 -4.89963e-05C34.4829 -4.89963e-05 28.8022 0.543733 23.3788 3.34894C19.0687 5.57829 13.4171 10.4871 10.0827 16.9382C10.122 16.9689 10.1605 17.0016 10.1968 17.0378L24.9623 31.8034C24.9986 31.8396 25.0311 31.878 25.0619 31.9174C31.513 28.5829 36.4218 22.9312 38.6511 18.6212ZM24.4204 8.87896C26.8191 6.4803 30.7222 6.48005 33.121 8.87896C34.2831 10.0409 34.923 11.586 34.923 13.2293C34.923 14.8726 34.2831 16.4177 33.121 17.5796C31.9218 18.7788 30.346 19.3786 28.7707 19.3787C27.195 19.3788 25.6199 18.7792 24.4204 17.5796C23.2584 16.4177 22.6184 14.8726 22.6184 13.2293C22.6184 11.586 23.2584 10.0409 24.4204 8.87896Z" fill="#FFAD00"/>
<path d="M26.1607 15.8393C27.5999 17.2785 29.9419 17.2786 31.3811 15.8393C32.0783 15.142 32.4623 14.2151 32.4623 13.2291C32.4623 12.2431 32.0783 11.3161 31.3811 10.619C30.6616 9.8993 29.7163 9.53951 28.7709 9.53951C27.8257 9.53951 26.8804 9.8993 26.1608 10.619C25.4636 11.3161 25.0795 12.2431 25.0795 13.2291C25.0795 14.2151 25.4635 15.1421 26.1607 15.8393ZM1.25568 34.6117C1.5706 34.6117 1.88551 34.4916 2.1257 34.2513L6.14299 30.234C6.62353 29.7535 6.62353 28.9744 6.14299 28.4939C5.66254 28.0133 4.88341 28.0133 4.40287 28.4939L0.385582 32.5112C-0.0949545 32.9917 -0.0949545 33.7707 0.385582 34.2513C0.499716 34.3657 0.635341 34.4565 0.784662 34.5183C0.933983 34.5802 1.09406 34.6119 1.25568 34.6117ZM9.82461 32.1755C9.34416 31.695 8.56503 31.695 8.0845 32.1755L0.36089 39.8991C-0.119646 40.3796 -0.119646 41.1587 0.36089 41.6392C0.601158 41.8795 0.916075 41.9996 1.23099 41.9996C1.54591 41.9996 1.86082 41.8795 2.10101 41.6391L9.82453 33.9156C10.3052 33.4351 10.3052 32.656 9.82461 32.1755ZM11.766 35.8571L7.74883 39.8744C7.26829 40.3549 7.26829 41.134 7.74883 41.6145C7.98909 41.8548 8.30401 41.975 8.61884 41.975C8.93368 41.975 9.24868 41.8549 9.48886 41.6145L13.5062 37.5972C13.9867 37.1167 13.9867 36.3376 13.5062 35.8571C13.0257 35.3766 12.2466 35.3766 11.766 35.8571Z" fill="#FFAD00"/>
</svg>
